<?xml version="1.0" encoding="UTF-8" standalone="no"?><!-- Generator: Gravit.io --><svg xmlns="http://www.w3.org/2000/svg" xmlns:xlink="http://www.w3.org/1999/xlink" style="isolation:isolate" viewBox="0 0 512 512" width="512pt" height="512pt"><defs><clipPath id="_clipPath_wBdwwnUEQYEffYEVQdvtOXLo5KFrfgIX"><rect width="512" height="512"/></clipPath></defs><g clip-path="url(#_clipPath_wBdwwnUEQYEffYEVQdvtOXLo5KFrfgIX)"><g><g><path d=" M 438.957 19.477 L 73.043 19.477 C 32.766 19.477 0 52.244 0 92.52 L 0 339.481 C 0 379.757 32.766 412.524 73.043 412.524 L 101.706 412.524 L 102.267 477.007 C 102.317 482.95 105.73 488.351 111.076 490.949 C 113.249 492.005 115.588 492.524 117.916 492.524 C 121.315 492.524 124.689 491.418 127.481 489.262 L 226.906 412.524 L 438.957 412.524 C 479.234 412.524 512 379.757 512 339.481 L 512 92.52 C 512 52.244 479.234 19.477 438.957 19.477 Z  M 480.696 339.482 C 480.696 362.497 461.972 381.221 438.957 381.221 L 221.569 381.221 C 218.109 381.221 214.746 382.368 212.006 384.482 L 133.295 445.232 L 132.873 396.737 C 132.799 388.146 125.813 381.221 117.222 381.221 L 73.043 381.221 C 50.028 381.221 31.304 362.497 31.304 339.482 L 31.304 92.52 C 31.304 69.505 50.028 50.781 73.043 50.781 L 438.958 50.781 C 461.973 50.781 480.697 69.505 480.697 92.52 L 480.697 339.482 L 480.696 339.482 Z " fill="rgb(171,59,97)"/></g></g></g></svg>