<?xml version="1.0" encoding="UTF-8" standalone="no"?><!-- Generator: Gravit.io --><svg xmlns="http://www.w3.org/2000/svg" xmlns:xlink="http://www.w3.org/1999/xlink" style="isolation:isolate" viewBox="0 0 512 512" width="512pt" height="512pt"><defs><clipPath id="_clipPath_sFY2eAUqcMLiUsZHZZ6zTIUi4yEwOOiX"><rect width="512" height="512"/></clipPath></defs><g clip-path="url(#_clipPath_sFY2eAUqcMLiUsZHZZ6zTIUi4yEwOOiX)"><clipPath id="_clipPath_gDoMeuFQFwQwgkHMbJ7iadaK3KmZ306b"><rect x="0" y="0" width="512" height="512" transform="matrix(1,0,0,1,0,0)" fill="rgb(255,255,255)"/></clipPath><g clip-path="url(#_clipPath_gDoMeuFQFwQwgkHMbJ7iadaK3KmZ306b)"><g><g><g><path d=" M 494.41 134.669 C 470.99 111.249 432.058 111.17 408.56 134.669 C 402.995 140.233 397.481 145.746 391.988 151.237 L 391.988 75.21 C 391.988 50.398 371.931 30.212 347.277 30.212 L 330.99 30.212 L 330.99 14.999 C 330.99 6.716 324.275 0 315.991 0 C 307.707 0 300.992 6.716 300.992 14.999 L 300.992 30.211 L 270.993 30.211 L 270.993 14.999 C 270.993 6.716 264.277 0 255.993 0 C 247.709 0 240.994 6.716 240.994 14.999 L 240.994 30.211 L 210.995 30.211 L 210.995 14.999 C 210.995 6.716 204.279 0 195.996 0 C 187.712 0 180.997 6.716 180.997 14.999 L 180.997 30.211 L 150.998 30.211 L 150.998 14.999 C 150.997 6.716 144.282 0 135.998 0 C 127.714 0 120.999 6.716 120.999 14.999 L 120.999 30.211 L 91 30.211 L 91 14.999 C 91 6.716 84.284 0 76 0 C 67.716 0 61.001 6.716 61.001 14.999 L 61.001 30.211 L 46 30.211 C 20.636 30.211 0.003 50.333 0.003 75.066 L 0.003 467.101 C 0.003 491.971 21.091 511.983 45.982 511.999 L 347.267 511.979 C 347.277 511.979 347.287 511.979 347.297 511.979 C 372.148 511.979 391.988 492.176 391.988 467.313 L 391.988 321.331 C 426.674 286.957 460.346 253.583 494.41 219.518 C 517.859 196.07 517.861 158.12 494.41 134.669 Z  M 361.989 467.315 C 361.989 475.57 355.595 482.082 347.286 482.082 C 347.283 482.082 347.279 482.082 347.276 482.082 L 45.993 482.102 C 37.475 482.097 30.004 475.087 30.004 467.103 L 30 75.067 C 30 67.152 37.477 60.011 46 60.011 L 61 60.011 L 61 74.997 C 61 83.281 67.716 89.996 75.999 89.996 C 84.282 89.996 90.998 83.28 90.998 74.997 L 90.998 60.011 L 120.997 60.011 L 120.997 74.997 C 120.997 83.281 127.713 89.996 135.996 89.996 C 144.28 89.996 150.995 83.28 150.995 74.997 L 150.995 60.011 L 180.994 60.011 L 180.994 74.997 C 180.994 83.281 187.71 89.996 195.993 89.996 C 204.276 89.996 210.992 83.28 210.992 74.997 L 210.992 60.011 L 240.991 60.011 L 240.991 74.997 C 240.991 83.281 247.707 89.996 255.99 89.996 C 264.274 89.996 270.989 83.28 270.989 74.997 L 270.989 60.011 L 300.988 60.011 L 300.988 74.997 C 300.988 83.281 307.704 89.996 315.987 89.996 C 324.271 89.996 330.986 83.28 330.986 74.997 L 330.986 60.011 L 347.272 60.011 C 355.522 60.011 361.984 66.8 361.984 75.21 L 361.984 181.215 C 331.438 211.732 301.683 241.437 271.997 271.088 L 76 271.088 C 67.716 271.088 61.001 277.804 61.001 286.087 C 61.001 294.371 67.717 300.986 76 300.986 L 241.974 300.986 C 224.119 318.828 213.328 329.72 211.963 331.085 L 76 331.085 C 67.716 331.085 61.001 337.801 61.001 346.084 C 61.001 354.368 67.717 361.083 76 361.083 L 198.473 361.083 L 188.473 391.082 L 76 391.082 C 67.716 391.082 61.001 397.798 61.001 406.081 C 61.001 414.364 67.717 421.083 76 421.083 L 178.474 421.083 L 173.79 435.134 C 169.871 446.893 181.121 457.988 192.763 454.107 L 288.218 422.288 C 290.427 421.551 292.435 420.311 294.081 418.664 C 317.017 395.728 339.705 373.177 361.988 351.072 L 361.988 467.315 L 361.989 467.315 L 361.989 467.315 Z  M 261.333 399.63 L 211.736 416.162 L 228.268 366.565 L 261.333 399.63 L 261.333 399.63 L 261.333 399.63 Z  M 287.234 383.107 L 244.802 340.675 C 291.909 293.584 337.175 248.411 384.457 201.174 L 427.65 243.699 C 407.825 263.402 313.251 357.15 287.234 383.107 Z  M 473.198 198.306 C 465.068 206.436 456.975 214.512 448.917 222.539 L 405.678 179.969 C 413.643 172.009 421.664 163.99 429.773 155.881 C 441.514 144.14 461.473 144.155 473.198 155.881 C 484.893 167.577 484.893 186.61 473.198 198.306 Z " fill="rgb(18, 61, 106)"/></g></g><g><g><path d=" M 185.98 151.094 L 76 151.094 C 67.716 151.094 61.001 157.81 61.001 166.093 C 61.001 174.376 67.717 181.093 76 181.093 L 185.98 181.093 C 194.264 181.093 200.979 174.377 200.979 166.094 C 200.979 157.811 194.264 151.094 185.98 151.094 Z " fill="rgb(18, 61, 106)"/></g></g><g><g><path d=" M 248.175 211.092 L 76 211.092 C 67.716 211.092 61.001 217.808 61.001 226.091 C 61.001 234.375 67.717 241.09 76 241.09 L 248.174 241.09 C 256.458 241.09 263.173 234.374 263.173 226.091 C 263.174 217.807 256.458 211.092 248.175 211.092 Z " fill="rgb(18, 61, 106)"/></g></g></g></g></g></svg>