<?xml version="1.0" encoding="UTF-8" standalone="no"?><!-- Generator: Gravit.io --><svg xmlns="http://www.w3.org/2000/svg" xmlns:xlink="http://www.w3.org/1999/xlink" style="isolation:isolate" viewBox="0 0 512 512" width="512pt" height="512pt"><defs><clipPath id="_clipPath_jvpkFCVSZ4zQQptHIPaIRJXTqJWaFgIp"><rect width="512" height="512"/></clipPath></defs><g clip-path="url(#_clipPath_jvpkFCVSZ4zQQptHIPaIRJXTqJWaFgIp)"><path d=" M 511.824 255.863 L 278.488 0 L 278.488 153.266 L 251.383 153.266 C 184.238 153.266 121.109 179.414 73.629 226.895 C 26.148 274.375 0 337.504 0 404.652 L 0 512 L 44.781 462.934 C 104.684 397.305 189.715 359.34 278.488 358.477 L 278.488 511.73 L 511.824 255.863 Z  M 30.004 434.867 L 30.004 404.652 C 30.004 345.52 53.031 289.922 94.844 248.109 C 136.656 206.297 192.25 183.27 251.383 183.27 L 308.488 183.27 L 308.488 77.426 L 471.223 255.863 L 308.488 434.305 L 308.488 328.461 L 281.57 328.461 C 186.867 328.461 95.797 367.113 30.004 434.867 L 30.004 434.867 Z " fill="rgb(18,61,106)"/></g></svg>